HIERARCHY
ROOT hip
{
  OFFSET 71.0889 83.6373 100.793
  CHANNELS 6 Xposition Yposition Zposition Zrotation Xrotation Yrotation
  JOINT abdomen
  {
    OFFSET 0 20.6881 -0.73152
    CHANNELS 3 Zrotation Xrotation Yrotation
    JOINT chest
    {
      OFFSET 0 11.7043 -0.48768
      CHANNELS 3 Zrotation Xrotation Yrotation
      JOINT neck
      {
        OFFSET 0 22.1894 -2.19456
        CHANNELS 3 Zrotation Xrotation Yrotation
        JOINT head
        {
          OFFSET -0.24384 7.07133 1.2192
          CHANNELS 3 Zrotation Xrotation Yrotation
          JOINT leftEye
          {
            OFFSET 4.14528 8.04674 8.04672
            CHANNELS 3 Zrotation Xrotation Yrotation
            End Site
            {
              OFFSET 1 0 0
            }
          }
          JOINT rightEye
          {
            OFFSET -3.6576 8.04674 8.04672
            CHANNELS 3 Zrotation Xrotation Yrotation
            End Site
            {
              OFFSET 1 0 0
            }
          }
        }
      }
      JOINT rCollar
      {
        OFFSET -2.68224 19.2634 -4.8768
        CHANNELS 3 Zrotation Xrotation Yrotation
        JOINT rShldr
        {
          OFFSET -8.77824 -1.95073 1.46304
          CHANNELS 3 Zrotation Xrotation Yrotation
          JOINT rForeArm
          {
            OFFSET -28.1742 -1.7115 0.48768
            CHANNELS 3 Zrotation Xrotation Yrotation
            JOINT rHand
            {
              OFFSET -22.5879 0.773209 7.07136
              CHANNELS 3 Zrotation Xrotation Yrotation
              JOINT rThumb1
              {
                OFFSET -1.2192 -0.487915 3.41376
                CHANNELS 3 Zrotation Xrotation Yrotation
                JOINT rThumb2
                {
                  OFFSET -3.37035 -0.52449 3.41376
                  CHANNELS 3 Zrotation Xrotation Yrotation
                  End Site
                  {
                    OFFSET -1.78271 -1.18214 1.43049
                  }
                }
              }
              JOINT rIndex1
              {
                OFFSET -7.75947 0.938293 5.60832
                CHANNELS 3 Zrotation Xrotation Yrotation
                JOINT rIndex2
                {
                  OFFSET -2.54057 -0.884171 1.56538
                  CHANNELS 3 Zrotation Xrotation Yrotation
                  End Site
                  {
                    OFFSET -1.62519 -0.234802 1.16502
                  }
                }
              }
              JOINT rMid1
              {
                OFFSET -8.24714 1.18213 3.41376
                CHANNELS 3 Zrotation Xrotation Yrotation
                JOINT rMid2
                {
                  OFFSET -3.10165 -0.590103 1.0647
                  CHANNELS 3 Zrotation Xrotation Yrotation
                  End Site
                  {
                    OFFSET -2.48547 -0.328903 0.83742
                  }
                }
              }
              JOINT rRing1
              {
                OFFSET -8.82822 0.546677 1.51678
                CHANNELS 3 Zrotation Xrotation Yrotation
                JOINT rRing2
                {
                  OFFSET -2.60934 -0.819778 -0.0198488
                  CHANNELS 3 Zrotation Xrotation Yrotation
                  End Site
                  {
                    OFFSET -2.33842 -0.294052 0.168128
                  }
                }
              }
              JOINT rPinky1
              {
                OFFSET -8.27202 -0.0477905 -0.4584
                CHANNELS 3 Zrotation Xrotation Yrotation
                JOINT rPinky2
                {
                  OFFSET -1.82734 -0.647385 -0.700984
                  CHANNELS 3 Zrotation Xrotation Yrotation
                  End Site
                  {
                    OFFSET -1.69225 -0.51767 -0.607171
                  }
                }
              }
            }
          }
        }
      }
      JOINT lCollar
      {
        OFFSET 2.68224 19.2634 -4.8768
        CHANNELS 3 Zrotation Xrotation Yrotation
        JOINT lShldr
        {
          OFFSET 8.77824 -1.95073 1.46304
          CHANNELS 3 Zrotation Xrotation Yrotation
          JOINT lForeArm
          {
            OFFSET 28.1742 -1.7115 0.48768
            CHANNELS 3 Zrotation Xrotation Yrotation
            JOINT lHand
            {
              OFFSET 22.5879 0.773209 7.07136
              CHANNELS 3 Zrotation Xrotation Yrotation
              JOINT lThumb1
              {
                OFFSET 1.2192 -0.487915 3.41376
                CHANNELS 3 Zrotation Xrotation Yrotation
                JOINT lThumb2
                {
                  OFFSET 3.37035 -0.52449 3.41376
                  CHANNELS 3 Zrotation Xrotation Yrotation
                  End Site
                  {
                    OFFSET 1.78271 -1.18214 1.43049
                  }
                }
              }
              JOINT lIndex1
              {
                OFFSET 7.75947 0.938293 5.60832
                CHANNELS 3 Zrotation Xrotation Yrotation
                JOINT lIndex2
                {
                  OFFSET 2.54057 -0.884171 1.56538
                  CHANNELS 3 Zrotation Xrotation Yrotation
                  End Site
                  {
                    OFFSET 1.62519 -0.234802 1.16502
                  }
                }
              }
              JOINT lMid1
              {
                OFFSET 8.24714 1.18213 3.41376
                CHANNELS 3 Zrotation Xrotation Yrotation
                JOINT lMid2
                {
                  OFFSET 3.10165 -0.590103 1.0647
                  CHANNELS 3 Zrotation Xrotation Yrotation
                  End Site
                  {
                    OFFSET 2.48547 -0.328903 0.83742
                  }
                }
              }
              JOINT lRing1
              {
                OFFSET 8.82822 0.546677 1.51678
                CHANNELS 3 Zrotation Xrotation Yrotation
                JOINT lRing2
                {
                  OFFSET 2.60934 -0.819778 -0.0198488
                  CHANNELS 3 Zrotation Xrotation Yrotation
                  End Site
                  {
                    OFFSET 2.33842 -0.294052 0.168128
                  }
                }
              }
              JOINT lPinky1
              {
                OFFSET 8.27202 -0.0477905 -0.4584
                CHANNELS 3 Zrotation Xrotation Yrotation
                JOINT lPinky2
                {
                  OFFSET 1.82734 -0.647385 -0.700984
                  CHANNELS 3 Zrotation Xrotation Yrotation
                  End Site
                  {
                    OFFSET 1.69225 -0.51767 -0.607171
                  }
                }
              }
            }
          }
        }
      }
    }
  }
  JOINT rButtock
  {
    OFFSET -8.77824 4.35084 1.2192
    CHANNELS 3 Zrotation Xrotation Yrotation
    JOINT rThigh
    {
      OFFSET 0 -1.70687 -2.19456
      CHANNELS 3 Zrotation Xrotation Yrotation
      JOINT rShin
      {
        OFFSET 0 -36.8199 0.73152
        CHANNELS 3 Zrotation Xrotation Yrotation
        JOINT rFoot
        {
          OFFSET 0.73152 -45.1104 -5.12064
          CHANNELS 3 Zrotation Xrotation Yrotation
          End Site
          {
            OFFSET -1.1221 -3.69964 12.103
          }
        }
      }
    }
  }
  JOINT lButtock
  {
    OFFSET 8.77824 4.35084 1.2192
    CHANNELS 3 Zrotation Xrotation Yrotation
    JOINT lThigh
    {
      OFFSET 0 -1.70687 -2.19456
      CHANNELS 3 Zrotation Xrotation Yrotation
      JOINT lShin
      {
        OFFSET 0 -36.8199 0.73152
        CHANNELS 3 Zrotation Xrotation Yrotation
        JOINT lFoot
        {
          OFFSET -0.73152 -45.1104 -5.12064
          CHANNELS 3 Zrotation Xrotation Yrotation
          End Site
          {
            OFFSET 1.1221 -3.69964 12.103
          }
        }
      }
    }
  }
}
MOTION
Frames:	4
Frame Time:	0.00833333
-0.467464 83.18 123.754 -2.63133 -24.227 -169.865 -11.1694 -18.8138 -6.17593 6.09884 14.0759 -1.88355 2.21981 10.8703 -11.8324 7.77328 -2.17586 -21.0674 -0 0 0 -0 0 0 -1.33812e-013 -4.78089e-013 2.02456e-013 85.1747 11.0914 -6.53781 -15.4926 -8.22432 28.6083 -0.0200732 -4.04106 -0.568887 2.57821e-010 5.42534e-010 4.58256e-009 4.34555e-010 9.52584e-010 7.93078e-009 2.57822e-010 5.42535e-010 4.58255e-009 7.73091 5.47488 0.417314 2.57819e-010 5.42533e-010 4.58256e-009 2.90554 0.965183 0.102902 2.57823e-010 5.42534e-010 4.58256e-009 10.2786 0.731801 0.0259123 2.57815e-010 5.42537e-010 4.58256e-009 2.22167 -0.733487 -0.20892 -1.33932e-013 -4.78066e-013 2.02273e-013 -65.9566 22.5442 -1.96763 13.6892 -6.70629 -24.9307 0.000791961 -0.821173 0.115416 -8.40303e-010 -2.63351e-009 -2.10057e-009 -1.464e-009 -4.55855e-009 -3.62666e-009 -8.40313e-010 -2.63352e-009 -2.10057e-009 -7.73091 5.47488 -0.417314 -8.40308e-010 -2.63352e-009 -2.10058e-009 -2.90554 0.965183 -0.102902 -8.40311e-010 -2.63352e-009 -2.10057e-009 -10.2786 0.731801 -0.0259123 -8.40295e-010 -2.63351e-009 -2.10057e-009 -2.22167 -0.733487 0.20892 -2.03217e-016 0 -3.88251e-019 -11.8402 -47.0911 1.28903 -0.103915 28.7516 0.797947 -2.86533 -10.3339 -16.1586 2.03217e-016 0 3.88251e-019 6.51968 -30.8086 -6.73728 0.0714341 21.1147 -0.541061 1.72519 -11.3788 10.0496 
-0.138273 83.1793 123.635 -3.02691 -24.1889 -170.039 -11.0709 -18.7137 -6.14088 6.24766 13.904 -1.89013 2.19922 10.9297 -11.9022 7.90329 -2.04393 -21.173 -0 0 0 -0 0 0 -2.20034e-013 -6.55133e-013 7.77722e-014 85.1521 10.9021 -6.78937 -15.4472 -8.18366 28.5139 -0.0198388 -4.01753 -0.565564 2.10599e-009 -3.20611e-010 5.44142e-009 3.629e-009 -5.39525e-010 9.41883e-009 2.10599e-009 -3.2061e-010 5.44141e-009 7.73091 5.47488 0.417314 2.10599e-009 -3.20611e-010 5.44143e-009 2.90554 0.965183 0.102902 2.10599e-009 -3.20611e-010 5.44142e-009 10.2786 0.731801 0.0259123 2.10598e-009 -3.20608e-010 5.44143e-009 2.22167 -0.733487 -0.20892 -2.20104e-013 -6.55107e-013 7.75792e-014 -65.7976 22.4252 -1.82032 13.6914 -6.70811 -24.9353 0.000616222 -0.721462 0.1014 2.994e-010 -2.56244e-009 -2.91264e-009 5.02454e-010 -4.43741e-009 -5.03124e-009 2.99389e-010 -2.56244e-009 -2.91263e-009 -7.73091 5.47488 -0.417314 2.99397e-010 -2.56245e-009 -2.91264e-009 -2.90554 0.965183 -0.102902 2.99388e-010 -2.56245e-009 -2.91263e-009 -10.2786 0.731801 -0.0259123 2.99406e-010 -2.56244e-009 -2.91264e-009 -2.22167 -0.733487 0.20892 -2.03217e-016 0 -3.88251e-019 -12.6269 -46.7243 1.1073 -0.0953384 27.8851 0.764687 -2.47208 -9.10062 -16.3616 2.03217e-016 0 3.88251e-019 7.0646 -30.7507 -6.86294 0.074993 21.3733 -0.552641 1.72825 -11.5917 10.1837 
0.194213 83.1627 123.512 -3.42693 -24.1482 -170.21 -10.97 -18.6488 -6.1147 6.3618 13.8036 -1.89783 2.20157 10.9769 -11.9566 8.02836 -1.9203 -21.2536 -0 0 0 -0 0 0 -2.42506e-013 -7.15638e-013 2.0773e-014 85.1622 10.7323 -6.99959 -15.4119 -8.15209 28.4406 -0.0195712 -3.99062 -0.561762 2.908e-009 -7.10842e-010 5.80763e-009 5.01562e-009 -1.21414e-009 1.00535e-008 2.908e-009 -7.10841e-010 5.80762e-009 7.73091 5.47488 0.417314 2.908e-009 -7.10841e-010 5.80764e-009 2.90554 0.965183 0.102902 2.908e-009 -7.10841e-010 5.80763e-009 10.2786 0.731801 0.0259123 2.90799e-009 -7.10839e-010 5.80764e-009 2.22167 -0.733487 -0.20892 -2.42545e-013 -7.15611e-013 2.05742e-014 -65.5884 22.2912 -1.70578 13.7013 -6.71593 -24.955 0.000532696 -0.659023 0.0926238 7.60566e-010 -2.57021e-009 -3.27329e-009 1.29816e-009 -4.45162e-009 -5.65516e-009 7.60555e-010 -2.57021e-009 -3.27328e-009 -7.73091 5.47488 -0.417314 7.60564e-010 -2.57022e-009 -3.27329e-009 -2.90554 0.965183 -0.102902 7.60553e-010 -2.57022e-009 -3.27329e-009 -10.2786 0.731801 -0.0259123 7.60571e-010 -2.57021e-009 -3.27329e-009 -2.22167 -0.733487 0.20892 -2.03217e-016 0 -3.88251e-019 -13.3429 -46.3788 1.05627 -0.0866407 27.0197 0.732783 -2.13092 -8.05017 -16.6266 2.03217e-016 0 3.88251e-019 7.6283 -30.6789 -6.96384 0.078459 21.6172 -0.563186 1.72573 -11.8254 10.2698 
0.554317 83.1408 123.379 -3.83449 -24.0947 -170.359 -10.8544 -18.6408 -6.08463 6.41555 13.8222 -1.90273 2.23893 11.0051 -11.9891 8.14695 -1.80063 -21.2982 -0 0 0 -0 0 0 -1.61372e-013 -5.92641e-013 7.66428e-014 85.223 10.5869 -7.14865 -15.3944 -8.13642 28.4044 -0.0193253 -3.96515 -0.558165 2.00815e-009 -3.14687e-010 5.47023e-009 3.46114e-009 -5.29035e-010 9.46939e-009 2.00815e-009 -3.14686e-010 5.47022e-009 7.73091 5.47488 0.417314 2.00814e-009 -3.14686e-010 5.47023e-009 2.90554 0.965183 0.102902 2.00815e-009 -3.14686e-010 5.47023e-009 10.2786 0.731801 0.0259123 2.00814e-009 -3.14686e-010 5.47024e-009 2.22167 -0.733487 -0.20892 -1.61407e-013 -5.92613e-013 7.64451e-014 -65.3033 22.1256 -1.64462 13.7191 -6.72996 -24.9905 0.000518918 -0.637626 0.0896165 6.62789e-011 -2.78628e-009 -2.95026e-009 9.97674e-011 -4.8246e-009 -5.09665e-009 6.62695e-011 -2.78628e-009 -2.95025e-009 -7.73091 5.47488 -0.417314 6.62788e-011 -2.78628e-009 -2.95025e-009 -2.90554 0.965183 -0.102902 6.62669e-011 -2.78628e-009 -2.95025e-009 -10.2786 0.731801 -0.0259123 6.62821e-011 -2.78628e-009 -2.95026e-009 -2.22167 -0.733487 0.20892 -2.03217e-016 0 -3.88251e-019 -13.9492 -46.0563 1.20302 -0.0774631 26.151 0.702727 -1.85887 -7.22102 -16.9804 2.03217e-016 0 3.88251e-019 8.21854 -30.5578 -7.0372 0.0817007 21.8179 -0.571616 1.71793 -12.0974 10.2954 
